<svg xmlns="http://www.w3.org/2000/svg" version="1.1" viewBox="0 0 1007 215"><defs><style>.st0{fill:hsl(var(--primary-500))}</style></defs><path d="M384.3,98.33h-13.8c-1.31,0-2.37-1.06-2.37-2.37v-29.1c0-2.25-.59-4.07-1.76-5.48-1.17-1.4-3.11-2.11-5.83-2.11h-13.93c-.65,0-1.19.53-1.19,1.19v35.49c0,1.31-1.06,2.37-2.37,2.37h-13.8c-1.31,0-2.37-1.06-2.37-2.37V2.37C326.89,1.06,327.95,0,329.26,0h26.51c5.06,0,9.5.7,13.35,2.11,3.84,1.4,7.05,3.35,9.62,5.83,2.58,2.48,4.54,5.36,5.9,8.64,1.36,3.28,2.04,6.79,2.04,10.54v1.4c0,4.03-1.08,7.8-3.23,11.31-2,3.26-5.02,5.82-9.04,7.67-.56.26-.93.81-.93,1.42h0c0,.82.64,1.51,1.46,1.56,4.47.27,7.12,1.8,8.86,3.75,1.92,2.16,2.88,4.87,2.88,8.15v33.59c0,1.31-1.06,2.37-2.37,2.37ZM345.43,40.39c0,.65.53,1.19,1.19,1.19h7.75c4.5,0,7.91-1.05,10.25-3.16,2.34-2.11,3.51-5.08,3.51-8.92v.28c0-3.28-1.17-6.11-3.51-8.5-2.34-2.39-5.76-3.58-10.25-3.58h-7.75c-.65,0-1.19.53-1.19,1.19v21.51Z"/><path d="M402.54,0h55.04c1.31,0,2.37,1.06,2.37,2.37v12.96c0,1.31-1.06,2.37-2.37,2.37h-37.69c-.65,0-1.19.53-1.19,1.19v20.1c0,.65.53,1.19,1.19,1.19h34.42c1.31,0,2.37,1.06,2.37,2.37v12.96c0,1.31-1.06,2.37-2.37,2.37h-34.42c-.65,0-1.19.53-1.19,1.19v20.38c0,.65.53,1.19,1.19,1.19h37.69c1.31,0,2.37,1.06,2.37,2.37v12.96c0,1.31-1.06,2.37-2.37,2.37h-55.04c-1.31,0-2.37-1.06-2.37-2.37V2.37C400.17,1.06,401.23,0,402.54,0Z"/><path d="M475.83,0h55.04c1.31,0,2.37,1.06,2.37,2.37v12.96c0,1.31-1.06,2.37-2.37,2.37h-37.69c-.65,0-1.19.53-1.19,1.19v20.1c0,.65.53,1.19,1.19,1.19h34.42c1.31,0,2.37,1.06,2.37,2.37v12.96c0,1.31-1.06,2.37-2.37,2.37h-34.42c-.65,0-1.19.53-1.19,1.19v20.38c0,.65.53,1.19,1.19,1.19h37.69c1.31,0,2.37,1.06,2.37,2.37v12.96c0,1.31-1.06,2.37-2.37,2.37h-55.04c-1.31,0-2.37-1.06-2.37-2.37V2.37C473.46,1.06,474.52,0,475.83,0Z"/><path d="M949.85,0h55.04c1.31,0,2.37,1.06,2.37,2.37v12.96c0,1.31-1.06,2.37-2.37,2.37h-37.69c-.65,0-1.19.53-1.19,1.19v20.1c0,.65.53,1.19,1.19,1.19h34.42c1.31,0,2.37,1.06,2.37,2.37v12.96c0,1.31-1.06,2.37-2.37,2.37h-34.42c-.65,0-1.19.53-1.19,1.19v20.38c0,.65.53,1.19,1.19,1.19h37.69c1.31,0,2.37,1.06,2.37,2.37v12.96c0,1.31-1.06,2.37-2.37,2.37h-55.04c-1.31,0-2.37-1.06-2.37-2.37V2.37C947.48,1.06,948.54,0,949.85,0Z"/><path d="M949.85,116.67h55.04c1.31,0,2.37,1.06,2.37,2.37v12.96c0,1.31-1.06,2.37-2.37,2.37h-37.69c-.65,0-1.19.53-1.19,1.19v20.1c0,.65.53,1.19,1.19,1.19h34.42c1.31,0,2.37,1.06,2.37,2.37v12.96c0,1.31-1.06,2.37-2.37,2.37h-34.42c-.65,0-1.19.53-1.19,1.19v20.38c0,.65.53,1.19,1.19,1.19h37.69c1.31,0,2.37,1.06,2.37,2.37v12.96c0,1.31-1.06,2.37-2.37,2.37h-55.04c-1.31,0-2.37-1.06-2.37-2.37v-93.59c0-1.31,1.06-2.37,2.37-2.37Z"/><path d="M873.41,2.37C873.41,1.06,874.48,0,875.79,0h21.45c12.17,0,21.21,2.83,27.11,8.5,5.9,5.67,8.85,14.45,8.85,26.34v28.66c0,11.89-2.95,20.67-8.85,26.34-5.9,5.67-14.94,8.5-27.11,8.5h-21.45c-1.31,0-2.37-1.06-2.37-2.37V2.37ZM897.24,80.63c6.46,0,10.98-1.52,13.56-4.56,2.57-3.04,3.86-7.8,3.86-14.26v-26.97c0-5.62-1.29-9.88-3.86-12.78-2.58-2.9-7.09-4.36-13.56-4.36h-4.1c-.65,0-1.19.53-1.19,1.19v60.56c0,.65.53,1.19,1.19,1.19h4.1Z"/><path d="M781.04,41.13c1.31,0,2.37-1.06,2.37-2.37v-6.9h0c0-16.32-13.07-29.58-29.32-29.89s-30.47,13.8-30.47,30.56v37.2c0,16.76,13.72,30.88,30.47,30.56,16.24-.31,29.31-13.57,29.31-29.89h0v-6.9c0-1.31-1.06-2.37-2.37-2.37h-13.8c-1.31,0-2.37,1.06-2.37,2.37v6.9h0c0,6.52-5.49,11.75-12.11,11.33-6.03-.39-10.6-5.67-10.6-11.71v-37.77c0-6.05,4.56-11.32,10.59-11.71,6.61-.43,12.11,4.81,12.11,11.33h0v6.9c0,1.31,1.06,2.37,2.37,2.37h13.8Z"/><path d="M828.44,0c-16.51,0-29.89,13.38-29.89,29.89h0v38.55h0c0,16.51,13.38,29.89,29.89,29.89s29.89-13.38,29.89-29.89V29.89C858.33,13.38,844.95,0,828.44,0ZM828.44,79.79c-6.27,0-11.35-5.08-11.35-11.35h0V29.89h0c0-6.27,5.08-11.35,11.35-11.35s11.35,5.08,11.35,11.35v38.55c0,6.27-5.08,11.35-11.35,11.35Z"/><path d="M311.01,39.16c1.31,0,2.37-1.06,2.37-2.37v-6.9h0C313.38,13.58,300.31.31,284.07,0c-16.76-.32-30.47,13.8-30.47,30.56v44.53h.09c-.04.56-.09,1.12-.09,1.69,0,11.9,9.65,21.55,21.55,21.55,8.79,0,16.34-5.27,19.69-12.82v10.45c0,1.31,1.06,2.37,2.37,2.37h13.8c1.31,0,2.37-1.06,2.37-2.37v-42.51c0-1.31-1.06-2.37-2.37-2.37h-25.15c-1.31,0-2.37,1.06-2.37,2.37v12.68c0,1.31,1.06,2.37,2.37,2.37h7.71c.71,0,1.27.63,1.19,1.34-.69,5.61-5.47,9.96-11.26,9.96-6.25,0-11.32-5.05-11.35-11.29h0V30.28c0-6.05,4.56-11.32,10.59-11.71,6.61-.43,12.11,4.81,12.11,11.33h0v6.9c0,1.31,1.06,2.37,2.37,2.37h13.8Z"/><path d="M602.48,98.33h-16.06c-.68,0-1.26-.48-1.4-1.14L565.39,1.29c-.14-.66.37-1.29,1.05-1.29h16.06c.68,0,1.26.48,1.4,1.14l19.63,95.9c.14.66-.37,1.29-1.05,1.29Z"/><rect width="18.5" height="98.3" x="549" rx="2" ry="2"/><rect width="18.5" height="98.3" x="602" rx="2" ry="2"/><path d="M383.53,215h-16.06c-.68,0-1.26-.48-1.4-1.14l-19.63-95.9c-.14-.66.37-1.29,1.05-1.29h16.06c.68,0,1.26.48,1.4,1.14l19.63,95.9c.14.66-.37,1.29-1.05,1.29Z"/><rect width="18.5" height="98.3" x="330" y="117" rx="2" ry="2"/><rect width="18.5" height="98.3" x="383" y="117" rx="2" ry="2"/><path d="M280.52,116.67h34.42c1.31,0,2.37,1.06,2.37,2.37v12.96c0,1.31-1.06,2.37-2.37,2.37h-17.06c-.65,0-1.19.53-1.19,1.19v60.56c0,.65.53,1.19,1.19,1.19h17.06c1.31,0,2.37,1.06,2.37,2.37v12.96c0,1.31-1.06,2.37-2.37,2.37h-34.42c-1.31,0-2.37-1.06-2.37-2.37v-93.59c0-1.31,1.06-2.37,2.37-2.37Z"/><path d="M296.69,119.04v93.59c0,1.31-1.06,2.37-2.37,2.37h-34.42c-1.31,0-2.37-1.06-2.37-2.37v-12.96c0-1.31,1.06-2.37,2.37-2.37h17.06c.65,0,1.19-.53,1.19-1.19v-60.56c0-.65-.53-1.19-1.19-1.19h-17.06c-1.31,0-2.37-1.06-2.37-2.37v-12.96c0-1.31,1.06-2.37,2.37-2.37h34.42c1.31,0,2.37,1.06,2.37,2.37Z"/><path d="M437.01,116.67h34.42c1.31,0,2.37,1.06,2.37,2.37v12.96c0,1.31-1.06,2.37-2.37,2.37h-17.06c-.65,0-1.19.53-1.19,1.19v60.56c0,.65.53,1.19,1.19,1.19h17.06c1.31,0,2.37,1.06,2.37,2.37v12.96c0,1.31-1.06,2.37-2.37,2.37h-34.42c-1.31,0-2.37-1.06-2.37-2.37v-93.59c0-1.31,1.06-2.37,2.37-2.37Z"/><path d="M453.18,119.04v93.59c0,1.31-1.06,2.37-2.37,2.37h-34.42c-1.31,0-2.37-1.06-2.37-2.37v-12.96c0-1.31,1.06-2.37,2.37-2.37h17.06c.65,0,1.19-.53,1.19-1.19v-60.56c0-.65-.53-1.19-1.19-1.19h-17.06c-1.31,0-2.37-1.06-2.37-2.37v-12.96c0-1.31,1.06-2.37,2.37-2.37h34.42c1.31,0,2.37,1.06,2.37,2.37Z"/><path d="M806.71,116.67h34.42c1.31,0,2.37,1.06,2.37,2.37v12.96c0,1.31-1.06,2.37-2.37,2.37h-17.06c-.65,0-1.19.53-1.19,1.19v60.56c0,.65.53,1.19,1.19,1.19h17.06c1.31,0,2.37,1.06,2.37,2.37v12.96c0,1.31-1.06,2.37-2.37,2.37h-34.42c-1.31,0-2.37-1.06-2.37-2.37v-93.59c0-1.31,1.06-2.37,2.37-2.37Z"/><path d="M822.88,119.04v93.59c0,1.31-1.06,2.37-2.37,2.37h-34.42c-1.31,0-2.37-1.06-2.37-2.37v-12.96c0-1.31,1.06-2.37,2.37-2.37h17.06c.65,0,1.19-.53,1.19-1.19v-60.56c0-.65-.53-1.19-1.19-1.19h-17.06c-1.31,0-2.37-1.06-2.37-2.37v-12.96c0-1.31,1.06-2.37,2.37-2.37h34.42c1.31,0,2.37,1.06,2.37,2.37Z"/><path d="M583.6,116.67h34.42c1.31,0,2.37,1.06,2.37,2.37v12.96c0,1.31-1.06,2.37-2.37,2.37h-17.06c-.65,0-1.19.53-1.19,1.19v60.56c0,.65.53,1.19,1.19,1.19h17.06c1.31,0,2.37,1.06,2.37,2.37v12.96c0,1.31-1.06,2.37-2.37,2.37h-34.42c-1.31,0-2.37-1.06-2.37-2.37v-93.59c0-1.31,1.06-2.37,2.37-2.37Z"/><path d="M599.77,119.04v93.59c0,1.31-1.06,2.37-2.37,2.37h-34.42c-1.31,0-2.37-1.06-2.37-2.37v-12.96c0-1.31,1.06-2.37,2.37-2.37h17.06c.65,0,1.19-.53,1.19-1.19v-60.56c0-.65-.53-1.19-1.19-1.19h-17.06c-1.31,0-2.37-1.06-2.37-2.37v-12.96c0-1.31,1.06-2.37,2.37-2.37h34.42c1.31,0,2.37,1.06,2.37,2.37Z"/><path d="M510.31,116.67h34.42c1.31,0,2.37,1.06,2.37,2.37v12.96c0,1.31-1.06,2.37-2.37,2.37h-17.06c-.65,0-1.19.53-1.19,1.19v77.08c0,1.31-1.06,2.37-2.37,2.37h-13.8c-1.31,0-2.37-1.06-2.37-2.37v-93.59c0-1.31,1.06-2.37,2.37-2.37Z"/><path d="M526.48,119.04v93.59c0,1.31-1.06,2.37-2.37,2.37h-13.8c-1.31,0-2.37-1.06-2.37-2.37v-77.08c0-.65-.53-1.19-1.19-1.19h-17.06c-1.31,0-2.37-1.06-2.37-2.37v-12.96c0-1.31,1.06-2.37,2.37-2.37h34.42c1.31,0,2.37,1.06,2.37,2.37Z"/><path d="M732.74,116.67h34.42c1.31,0,2.37,1.06,2.37,2.37v12.96c0,1.31-1.06,2.37-2.37,2.37h-17.06c-.65,0-1.19.53-1.19,1.19v77.08c0,1.31-1.06,2.37-2.37,2.37h-13.8c-1.31,0-2.37-1.06-2.37-2.37v-93.59c0-1.31,1.06-2.37,2.37-2.37Z"/><path d="M748.91,119.04v93.59c0,1.31-1.06,2.37-2.37,2.37h-13.8c-1.31,0-2.37-1.06-2.37-2.37v-77.08c0-.65-.53-1.19-1.19-1.19h-17.06c-1.31,0-2.37-1.06-2.37-2.37v-12.96c0-1.31,1.06-2.37,2.37-2.37h34.42c1.31,0,2.37,1.06,2.37,2.37Z"/><path d="M684.42,193.93h-31.84c-.47,0-.87.32-.98.78l-4.32,19.06c-.16.72-.81,1.23-1.55,1.23h-16.11c-1.02,0-1.78-.96-1.54-1.95l22.54-94.46c.27-1.13,1.27-1.92,2.43-1.92h30.89c1.16,0,2.16.79,2.43,1.92l22.53,94.46c.24,1-.52,1.95-1.54,1.95h-16.11c-.74,0-1.38-.51-1.55-1.23l-4.32-19.06c-.1-.46-.51-.78-.98-.78ZM656.97,176.23h22.92c.64,0,1.12-.6.98-1.22l-10.92-48.29c-.1-.46-.51-.78-.98-.78h-.93c-.47,0-.87.32-.97.78l-11.06,48.29c-.14.63.33,1.22.97,1.22Z"/><path d="M856.84,116.67h15.53c.94,0,1.76.66,1.95,1.58l18.73,86.69c.1.46.51.79.98.79h.92c.47,0,.88-.33.98-.79l18.73-86.69c.2-.92,1.01-1.58,1.95-1.58h15.53c1,0,1.75.93,1.53,1.91l-21.32,94.47c-.26,1.14-1.27,1.95-2.44,1.95h-30.84c-1.17,0-2.18-.81-2.44-1.95l-21.32-94.47c-.22-.98.52-1.91,1.53-1.91Z"/><path d="M83.78,211.29c.24-12.5,2.4-24.81,6.48-36.62,1.51-4.38,3.27-8.63,5.25-12.74-.64-1.14-1.3-2.26-1.98-3.37-.54-.89-1.1-1.77-1.67-2.64-18.83-28.78-51.32-47.81-88.28-47.81-1.2,0-2.38.05-3.57.09.04,50.77,35.97,93.1,83.78,103.1Z" class="st0"/><path d="M202.97,108.1c-17.32,0-33.67,4.18-48.08,11.58-9.61,4.94-18.36,11.3-25.98,18.82-1.9,1.88-3.74,3.83-5.49,5.85-2.64,3.03-5.1,6.21-7.38,9.53-1.52,2.21-2.96,4.48-4.31,6.81-.23.4-.45.82-.68,1.22-.43.77-.87,1.53-1.29,2.31-1.45,2.73-2.77,5.54-3.98,8.41-.9,2.14-1.75,4.3-2.51,6.51-.79,2.3-1.5,4.64-2.13,7.01-.17.65-.35,1.29-.51,1.94-.62,2.51-1.17,5.05-1.61,7.62-.52,3.04-.9,6.12-1.15,9.23-.22,2.73-.35,5.49-.36,8.28,2.63.2,5.29.33,7.97.33,1.2,0,2.38-.05,3.57-.09.75-.02,1.49-.09,2.23-.13,15.06-.82,29.28-4.76,42.01-11.24,5.41-2.75,10.53-5.98,15.35-9.59.77-.58,1.54-1.16,2.29-1.76,2.14-1.69,4.21-3.46,6.21-5.31,1.35-1.25,2.68-2.53,3.97-3.86,18.39-18.92,29.74-44.71,29.83-73.16-2.63-.2-5.29-.33-7.97-.33Z" class="st0"/><path d="M18.35,95.25c5.87-8.39,17.2-16.31,32.58-22.07-1.71,8.86-2.78,18.27-3.12,28.04h-4.32c9.63,3.43,18.73,8.07,27.11,13.77h27.98v26.57c1.63,2.15,3.2,4.35,4.69,6.62,2.78-4.24,5.82-8.27,9.09-12.09v-21.11h23.58c8.4-5.72,17.54-10.37,27.2-13.8-.35-9.76-1.42-19.15-3.12-28.01,15.12,5.66,26.3,13.4,32.26,21.63,3.53-.32,7.1-.49,10.7-.49,2.2,0,4.53.08,7.08.24C203.4,42.71,159.13,2.63,105.47,2.63S7.65,42.62.92,94.38c.83-.03,1.71-.05,2.65-.05,4.99,0,9.92.32,14.78.92ZM190.55,73.95c-9.1-6.8-20.83-12.46-34.38-16.54-4.08-13.55-9.75-25.29-16.54-34.38,23.13,9.32,41.61,27.8,50.92,50.92ZM112.36,17.76c10.52,3.99,20.92,16.81,28.04,35.81-8.86-1.71-18.27-2.78-28.04-3.12V17.76ZM112.36,64.22c11.83.44,22.78,1.99,32.62,4.38,2.39,9.84,3.94,20.79,4.38,32.62h-37v-37ZM98.59,101.22h-37c.44-11.83,1.99-22.78,4.38-32.62,9.84-2.39,20.79-3.94,32.62-4.38v37ZM98.59,17.76v32.68c-9.77.35-19.17,1.42-28.04,3.12,7.11-19,17.52-31.81,28.04-35.81ZM71.32,23.03c-6.79,9.1-12.46,20.83-16.54,34.38-13.55,4.08-25.29,9.75-34.38,16.54,9.32-23.13,27.8-41.61,50.92-50.92Z" class="st0"/></svg>