<svg xmlns="http://www.w3.org/2000/svg" viewBox="0 0 4612 584"><g fill="#000f00"><path d="M1450 584h-82c-8 0-14-6-14-14v-173c0-13-3-24-10-33-7-8-18-13-35-13h-83c-4 0-7 3-7 7v211c0 8-6 14-14 14h-82c-8 0-14-6-14-14V14C1109 6 1115 0 1123 0h157c30 0 56 4 79 13 23 8 42 20 57 35 15 15 27 32 35 51 8 19 12 40 12 63v8c0 24-6 46-19 67-12 19-30 35-54 46-3 2-6 5-6 8h0c0 5 4 9 9 9 27 2 42 11 53 22 11 13 17 29 17 48v199c0 8-6 14-14 14ZM1219 240c0 4 3 7 7 7h46c27 0 47-6 61-19 14-13 21-30 21-53v2c0-19-7-36-21-50-14-14-34-21-61-21h-46c-4 0-7 3-7 7v128ZM1563 0h327c8 0 14 6 14 14v77c0 8-6 14-14 14h-224c-4 0-7 3-7 7v119c0 4 3 7 7 7h204c8 0 14 6 14 14v77c0 8-6 14-14 14h-204c-4 0-7 3-7 7v121c0 4 3 7 7 7h224c8 0 14 6 14 14v77c0 8-6 14-14 14h-327c-8 0-14-6-14-14V14C1548 6 1555 0 1563 0ZM2002 0h327c8 0 14 6 14 14v77c0 8-6 14-14 14h-224c-4 0-7 3-7 7v119c0 4 3 7 7 7h204c8 0 14 6 14 14v77c0 8-6 14-14 14h-204c-4 0-7 3-7 7v121c0 4 3 7 7 7h224c8 0 14 6 14 14v77c0 8-6 14-14 14h-327c-8 0-14-6-14-14V14C1988 6 1995 0 2002 0ZM2882 0h327c8 0 14 6 14 14v77c0 8-6 14-14 14h-224c-4 0-7 3-7 7v119c0 4 3 7 7 7h204c8 0 14 6 14 14v77c0 8-6 14-14 14h-204c-4 0-7 3-7 7v121c0 4 3 7 7 7h224c8 0 14 6 14 14v77c0 8-6 14-14 14h-327c-8 0-14-6-14-14V14C2868 6 2874 0 2882 0ZM2428 14C2428 6 2434 0 2442 0h127c72 0 126 17 161 50 35 34 53 86 53 156v170c0 71-18 123-53 156-35 34-89 50-161 50h-127c-8 0-14-6-14-14V14ZM2570 479c38 0 65-9 81-27 15-18 23-46 23-85v-160c0-33-8-59-23-76-15-17-42-26-80-26h-24c-4 0-7 3-7 7v360c0 4 3 7 7 7h24ZM1010 233c8 0 14-6 14-14v-41h0C1024 81 946 2 850 0c-99-2-181 82-181 181v221c0 100 81 183 181 181 96-2 174-81 174-177h0v-41c0-8-6-14-14-14h-82c-8 0-14 6-14 14v41h0c0 39-33 70-72 67-36-2-63-34-63-70v-224c0-36 27-67 63-70 39-3 72 29 72 67h0v41c0 8 6 14 14 14h82ZM4435 0c-98 0-178 79-178 178h0v229h0c0 98 79 178 178 178s178-79 178-178v-229C4612 79 4533 0 4435 0ZM4435 474c-37 0-67-30-67-67h0v-229h0c0-37 30-67 67-67s67 30 67 67v229c0 37-30 67-67 67ZM4158 233c8 0 14-6 14-14v-41h0c0-97-78-176-174-177-99-2-181 82-181 181v264h1c0 3-1 7-1 10 0 71 57 128 128 128 52 0 97-31 117-76v62c0 8 6 14 14 14h82c8 0 14-6 14-14v-252c0-8-6-14-14-14h-149c-8 0-14 6-14 14v75c0 8 6 14 14 14h46c4 0 8 4 7 8-4 33-32 59-67 59-37 0-67-30-67-67h0v-227c0-36 27-67 63-70 39-3 72 29 72 67h0v41c0 8 6 14 14 14h82ZM3626 584h-95c-4 0-7-3-8-7L3406 8c-1-4 2-8 6-8h95c4 0 8 3 8 7l117 570c1 4-2 8-6 8Z"/><rect width="110.1" height="583.9" x="3308" rx="2" ry="2"/><rect width="110.1" height="583.9" x="3623" rx="2" ry="2"/></g><g fill="#30d465"><path d="M111.11,195.84c33.69,48.82,35.53,105.98,35.53,105.98,0,0-52.79-21.99-86.48-70.81C26.46,182.19,24.63,125.03,24.63,125.03c0,0,52.79,21.99,86.48,70.81Z"/><path d="M70 298c43-14 85-3 85-3 0 0-27 34-70 48-43 14-85 3-85 3 0 0 27-34 70-48ZM455 496c-42 8-80-6-80-6 0 0 30-27 72-35 42-8 80 6 80 6 0 0-30 27-72 35ZM490 300c-26 33-64 46-64 46 0 0 4-40 30-73 26-33 64-46 64-46 0 0-4 40-30 73Z"/><path d="M278 85c7-34 18-63 23-77C302 5 299 0 295 0h-94c-3 0-6 3-6 6 0 13-2 46-9 83-7 34-18 63-23 77-2 4 1 9 6 9h94c3 0 6-3 6-6 0-13 1-46 9-83ZM236 290c7-34 18-63 23-77 2-4-1-9-6-9h-94c-3 0-6 3-6 6 0 13-2 46-9 83-7 34-18 63-23 77-2 4 1 9 6 9h94c3 0 6-3 6-6 0-13 1-46 9-83ZM194 495c7-34 18-63 23-77 2-4-1-9-6-9h-94c-3 0-6 3-6 6 0 13-2 46-9 83-7 34-18 63-23 77-2 4 1 9 6 9h94c3 0 6-3 6-6 0-13 1-46 9-83ZM477 85c7-34 18-63 23-77C502 5 499 0 494 0h-94c-3 0-6 3-6 6 0 13-2 46-9 83-7 34-18 63-23 77-2 4 1 9 6 9h94c3 0 6-3 6-6 0-13 1-46 9-83ZM435 290c7-34 18-63 23-77 2-4-1-9-6-9h-94c-3 0-6 3-6 6 0 13-2 46-9 83-7 34-18 63-23 77-2 4 1 9 6 9h94c3 0 6-3 6-6 0-13 1-46 9-83ZM393 495c7-34 18-63 23-77 2-4-1-9-6-9h-94c-3 0-6 3-6 6 0 13-2 46-9 83-7 34-18 63-23 77-2 4 1 9 6 9h94c3 0 6-3 6-6 0-13 1-46 9-83Z"/></g></svg>